PathFileType	4	(X/Y/Z)	 3.0Hz3min.trc
DataRate	CameraRate	NumFrames	NumMarkers	Units	OrigDataRate	OrigDataStartFrame	OrigNumFrames
200	200	9	39	m	200	874	998
Frame#	Time	C7			LSH			RSH			MAN			RASI			LASI			HIPR			HIPL			RPSI			LPSI			COX			RTHI1			RTHI2			RTHI3			RTHI4			RLKN			RMKN			RSHA1			RSHA2			RSHA3			RSHA4			RHEEL			RMET5			RMET1			RTOE			LTHI1			LTHI2			LTHI3			LTHI4			LLKN			LMKN			LSHA1			LSHA2			LSHA3			LSHA4			LHEEL			LMET5			LMET1			LTOE			
		X1	Y1	Z1	X2	Y2	Z2	X3	Y3	Z3	X4	Y4	Z4	X5	Y5	Z5	X6	Y6	Z6	X7	Y7	Z7	X8	Y8	Z8	X9	Y9	Z9	X10	Y10	Z10	X11	Y11	Z11	X12	Y12	Z12	X13	Y13	Z13	X14	Y14	Z14	X15	Y15	Z15	X16	Y16	Z16	X17	Y17	Z17	X18	Y18	Z18	X19	Y19	Z19	X20	Y20	Z20	X21	Y21	Z21	X22	Y22	Z22	X23	Y23	Z23	X24	Y24	Z24	X25	Y25	Z25	X26	Y26	Z26	X27	Y27	Z27	X28	Y28	Z28	X29	Y29	Z29	X30	Y30	Z30	X31	Y31	Z31	X32	Y32	Z32	X33	Y33	Z33	X34	Y34	Z34	X35	Y35	Z35	X36	Y36	Z36	X37	Y37	Z37	X38	Y38	Z38	X39	Y39	Z39	
874	4.3700	-0.273168	1.475950	-0.534802	-0.209778	1.459049	-0.716800	-0.238568	1.456946	-0.343295	-0.121611	1.413221	-0.532234	-0.161344	0.956051	-0.412867	-0.151531	0.953679	-0.651724	-0.245000	1.024179	-0.366846	-0.222171	1.012008	-0.702574	-0.330827	1.019692	-0.495149	-0.326729	1.022447	-0.583358	-0.327416	1.024535	-0.536338	-0.245242	0.770578	-0.340776	-0.230876	0.713045	-0.334452	-0.167461	0.726977	-0.332202	-0.174819	0.787877	-0.340266	-0.194874	0.451104	-0.360011	-0.180612	0.440894	-0.477796	-0.280888	0.342992	-0.337943	-0.299218	0.306448	-0.349033	-0.241340	0.287865	-0.353718	-0.227626	0.324675	-0.344982	-0.404127	0.083937	-0.435399	-0.255370	0.034202	-0.353039	-0.193234	0.046244	-0.422543	-0.162587	0.034653	-0.415943	-0.244753	0.766106	-0.727799	-0.225177	0.707876	-0.734132	-0.162445	0.722965	-0.735939	-0.172936	0.782167	-0.730076	-0.209642	0.452076	-0.706115	-0.183546	0.447205	-0.587209	-0.295293	0.330753	-0.721824	-0.312289	0.294677	-0.712530	-0.252682	0.274015	-0.712885	-0.243198	0.316003	-0.722584	-0.413262	0.070650	-0.636616	-0.253013	0.035099	-0.720083	-0.197001	0.047223	-0.646512	-0.170730	0.036233	-0.657679	
875	4.3750	-0.273431	1.479004	-0.534993	-0.209863	1.462644	-0.716734	-0.238707	1.460482	-0.343625	-0.121818	1.416774	-0.532344	-0.160823	0.959562	-0.412677	-0.150755	0.957098	-0.651383	-0.244260	1.027360	-0.367129	-0.220326	1.015547	-0.702422	-0.330280	1.022342	-0.495450	-0.325988	1.025246	-0.583680	-0.326770	1.027217	-0.536600	-0.244503	0.773715	-0.340569	-0.230372	0.716141	-0.334282	-0.166907	0.729757	-0.332407	-0.174039	0.790726	-0.340515	-0.196498	0.453844	-0.359894	-0.182125	0.443470	-0.477829	-0.282151	0.345500	-0.338047	-0.300307	0.308769	-0.349072	-0.242334	0.290455	-0.353329	-0.228832	0.327355	-0.344683	-0.403603	0.086124	-0.434979	-0.255170	0.034240	-0.353131	-0.193123	0.046250	-0.422438	-0.162558	0.034657	-0.415981	-0.244059	0.769261	-0.728047	-0.224720	0.710960	-0.734313	-0.161907	0.725740	-0.735635	-0.172160	0.784987	-0.729800	-0.212139	0.454660	-0.706084	-0.185905	0.449663	-0.587094	-0.297399	0.332958	-0.721534	-0.314130	0.296757	-0.712218	-0.254426	0.276410	-0.713155	-0.245246	0.318486	-0.722762	-0.412906	0.072312	-0.636753	-0.253007	0.035066	-0.719954	-0.196975	0.047229	-0.646574	-0.170745	0.036226	-0.657650	
876	4.3800	-0.273721	1.482244	-0.535178	-0.209970	1.466440	-0.716645	-0.238839	1.464238	-0.343956	-0.121996	1.420570	-0.532427	-0.160278	0.963260	-0.412473	-0.149962	0.960673	-0.651066	-0.243570	1.030738	-0.367364	-0.218597	1.019246	-0.702239	-0.329693	1.025188	-0.495693	-0.325255	1.028235	-0.583936	-0.326098	1.030082	-0.536801	-0.243836	0.777058	-0.340395	-0.229983	0.719411	-0.334153	-0.166455	0.732670	-0.332527	-0.173302	0.793689	-0.340636	-0.198334	0.456773	-0.359744	-0.183696	0.446261	-0.477809	-0.283826	0.348199	-0.338057	-0.301702	0.311224	-0.349190	-0.243635	0.293204	-0.352824	-0.230365	0.330203	-0.344249	-0.403033	0.088438	-0.434488	-0.254952	0.034303	-0.353177	-0.193026	0.046266	-0.422310	-0.162553	0.034664	-0.416011	-0.243401	0.772625	-0.728273	-0.224365	0.714238	-0.734474	-0.161464	0.728645	-0.735374	-0.171414	0.787942	-0.729567	-0.214895	0.457423	-0.706083	-0.188334	0.452370	-0.586995	-0.299735	0.335329	-0.721190	-0.316163	0.298998	-0.711824	-0.256364	0.278993	-0.713488	-0.247528	0.321161	-0.723009	-0.412484	0.074163	-0.636896	-0.252998	0.035049	-0.719828	-0.196943	0.047241	-0.646653	-0.170760	0.036223	-0.657626	
877	4.3850	-0.274043	1.485625	-0.535360	-0.210108	1.470395	-0.716537	-0.238978	1.468169	-0.344292	-0.122034	1.424551	-0.532434	-0.159717	0.967094	-0.412279	-0.149158	0.964346	-0.650787	-0.242916	1.034298	-0.367567	-0.217078	1.023112	-0.702016	-0.329074	1.028226	-0.495872	-0.324530	1.031395	-0.584141	-0.325414	1.033114	-0.536940	-0.243249	0.780554	-0.340248	-0.229707	0.722840	-0.334061	-0.166100	0.735715	-0.332578	-0.172627	0.796751	-0.340639	-0.200293	0.459859	-0.359572	-0.185289	0.449236	-0.477730	-0.285809	0.351082	-0.337916	-0.303317	0.313816	-0.349332	-0.245160	0.296086	-0.352230	-0.232125	0.333213	-0.343698	-0.402417	0.090839	-0.433924	-0.254703	0.034421	-0.353168	-0.192951	0.046291	-0.422163	-0.162579	0.034675	-0.416038	-0.242816	0.776174	-0.728475	-0.224138	0.717686	-0.734625	-0.161143	0.731657	-0.735160	-0.170740	0.791005	-0.729369	-0.217774	0.460352	-0.706111	-0.190774	0.455315	-0.586919	-0.302182	0.337844	-0.720806	-0.318303	0.301394	-0.711397	-0.258408	0.281734	-0.713866	-0.249942	0.323981	-0.723301	-0.411989	0.076186	-0.637050	-0.252981	0.035054	-0.719719	-0.196911	0.047268	-0.646762	-0.170772	0.036221	-0.657608	
878	4.3900	-0.274398	1.489105	-0.535535	-0.210281	1.474470	-0.716411	-0.239132	1.472236	-0.344640	-0.121888	1.428677	-0.532344	-0.159151	0.971007	-0.412106	-0.148368	0.968082	-0.650544	-0.242274	1.038036	-0.367746	-0.215799	1.027072	-0.701735	-0.328436	1.031443	-0.495987	-0.323823	1.034711	-0.584285	-0.324733	1.036297	-0.537034	-0.242751	0.784187	-0.340106	-0.229531	0.726404	-0.333979	-0.165850	0.738904	-0.332587	-0.172023	0.799934	-0.340561	-0.202312	0.463071	-0.359384	-0.186883	0.452356	-0.477601	-0.288008	0.354117	-0.337648	-0.305052	0.316537	-0.349449	-0.246809	0.299085	-0.351574	-0.234018	0.336332	-0.343083	-0.401770	0.093313	-0.433310	-0.254460	0.034541	-0.353144	-0.192891	0.046326	-0.422003	-0.162631	0.034691	-0.416060	-0.242336	0.779868	-0.728652	-0.224063	0.721264	-0.734771	-0.160970	0.734765	-0.734997	-0.170166	0.794163	-0.729209	-0.220650	0.463433	-0.706161	-0.193173	0.458484	-0.586871	-0.304633	0.340485	-0.720415	-0.320450	0.303928	-0.710987	-0.260478	0.284605	-0.714289	-0.252373	0.326932	-0.723639	-0.411421	0.078374	-0.637226	-0.252953	0.035075	-0.719613	-0.196878	0.047301	-0.646893	-0.170788	0.036220	-0.657598	
879	4.3950	-0.274781	1.492653	-0.535702	-0.210497	1.478629	-0.716266	-0.239310	1.476400	-0.345004	-0.121826	1.432863	-0.532282	-0.158585	0.974945	-0.411971	-0.147601	0.971838	-0.650353	-0.241617	1.041928	-0.367911	-0.214703	1.031137	-0.701467	-0.327785	1.034823	-0.496044	-0.323137	1.038167	-0.584376	-0.324062	1.039618	-0.537081	-0.242343	0.787928	-0.339964	-0.229437	0.730078	-0.333901	-0.165690	0.742216	-0.332556	-0.171501	0.803225	-0.340415	-0.204345	0.466390	-0.359190	-0.188472	0.455579	-0.477447	-0.290329	0.357316	-0.337205	-0.306807	0.319382	-0.349497	-0.248487	0.302188	-0.350881	-0.235939	0.339555	-0.342443	-0.401096	0.095835	-0.432634	-0.254222	0.034660	-0.353120	-0.192846	0.046372	-0.421839	-0.162704	0.034712	-0.416076	-0.241987	0.783685	-0.728807	-0.224149	0.724946	-0.734916	-0.160960	0.737966	-0.734892	-0.169732	0.797407	-0.729092	-0.223424	0.466650	-0.706229	-0.195487	0.461848	-0.586854	-0.306992	0.343236	-0.720048	-0.322533	0.306595	-0.710645	-0.262494	0.287591	-0.714748	-0.254731	0.330002	-0.724009	-0.410786	0.080721	-0.637455	-0.252902	0.035115	-0.719510	-0.196836	0.047348	-0.647052	-0.170805	0.036222	-0.657586	
880	4.4000	-0.275186	1.496231	-0.535862	-0.210752	1.482828	-0.716097	-0.239513	1.480623	-0.345385	-0.121852	1.437082	-0.532250	-0.158023	0.978866	-0.411880	-0.146885	0.975586	-0.650206	-0.240914	1.045950	-0.368058	-0.213803	1.035315	-0.701124	-0.327130	1.038342	-0.496046	-0.322485	1.041734	-0.584411	-0.323409	1.043060	-0.537084	-0.242026	0.791745	-0.339824	-0.229422	0.733828	-0.333826	-0.165609	0.745628	-0.332492	-0.171067	0.806619	-0.340218	-0.206361	0.469791	-0.358998	-0.190054	0.458865	-0.477291	-0.292531	0.360493	-0.336774	-0.308495	0.322304	-0.349459	-0.250096	0.305379	-0.350155	-0.237792	0.342871	-0.341805	-0.400373	0.098382	-0.431900	-0.253970	0.034807	-0.353083	-0.192807	0.046420	-0.421669	-0.162794	0.034744	-0.416088	-0.241789	0.787583	-0.728937	-0.224393	0.728714	-0.735055	-0.161110	0.741255	-0.734854	-0.169448	0.800738	-0.729021	-0.226027	0.469994	-0.706304	-0.197685	0.465361	-0.586860	-0.309185	0.346088	-0.719730	-0.324466	0.309386	-0.710405	-0.264374	0.290689	-0.715244	-0.256932	0.333176	-0.724399	-0.410076	0.083193	-0.637749	-0.252814	0.035178	-0.719420	-0.196784	0.047411	-0.647243	-0.170821	0.036230	-0.657576	
881	4.4050	-0.275606	1.499812	-0.536012	-0.211054	1.487035	-0.715909	-0.239747	1.484867	-0.345785	-0.121988	1.441300	-0.532256	-0.157472	0.982731	-0.411835	-0.146230	0.979301	-0.650113	-0.240148	1.050075	-0.368186	-0.213079	1.039536	-0.700838	-0.326484	1.041984	-0.496001	-0.321862	1.045393	-0.584408	-0.322781	1.046596	-0.537053	-0.241803	0.795594	-0.339690	-0.229485	0.737630	-0.333752	-0.165611	0.749124	-0.332396	-0.170741	0.810123	-0.340001	-0.208333	0.473252	-0.358814	-0.191607	0.462186	-0.477163	-0.294464	0.363672	-0.336492	-0.310042	0.325300	-0.349326	-0.251561	0.308631	-0.349423	-0.239495	0.346245	-0.341193	-0.399591	0.100940	-0.431093	-0.253698	0.034995	-0.353065	-0.192772	0.046465	-0.421456	-0.162891	0.034782	-0.416070	-0.241751	0.791544	-0.729034	-0.224781	0.732546	-0.735184	-0.161413	0.744633	-0.734883	-0.169330	0.804155	-0.729007	-0.228426	0.473442	-0.706381	-0.199755	0.468962	-0.586883	-0.311160	0.349025	-0.719478	-0.326203	0.312267	-0.710290	-0.266052	0.293884	-0.715763	-0.258924	0.336450	-0.724796	-0.409299	0.085779	-0.638109	-0.252672	0.035286	-0.719343	-0.196729	0.047499	-0.647463	-0.170838	0.036238	-0.657566	
882	4.4100	-0.276030	1.503372	-0.536154	-0.211393	1.491220	-0.715700	-0.240004	1.489101	-0.346198	-0.122347	1.445546	-0.532349	-0.156938	0.986514	-0.411832	-0.145660	0.982964	-0.650066	-0.239306	1.054277	-0.368289	-0.212463	1.043749	-0.700609	-0.325855	1.045716	-0.495919	-0.321281	1.049126	-0.584359	-0.322186	1.050214	-0.536990	-0.241679	0.799457	-0.339562	-0.229626	0.741437	-0.333684	-0.165687	0.752665	-0.332254	-0.170528	0.813702	-0.339767	-0.210229	0.476750	-0.358638	-0.193109	0.465511	-0.477075	-0.296102	0.366814	-0.336336	-0.311393	0.328329	-0.349099	-0.252829	0.311919	-0.348705	-0.241000	0.349613	-0.340623	-0.398763	0.103533	-0.430220	-0.253374	0.035265	-0.353039	-0.192764	0.046541	-0.421232	-0.163031	0.034820	-0.416063	-0.241876	0.795531	-0.729091	-0.225300	0.736415	-0.735292	-0.161858	0.748102	-0.734978	-0.169379	0.807652	-0.729051	-0.230629	0.476961	-0.706455	-0.201688	0.472614	-0.586909	-0.312900	0.352030	-0.719339	-0.327707	0.315207	-0.710308	-0.267495	0.297152	-0.716307	-0.260662	0.339806	-0.725196	-0.408460	0.088470	-0.638552	-0.252500	0.035412	-0.719284	-0.196682	0.047602	-0.647729	-0.170858	0.036250	-0.657563	
